<?xml version="1.0" encoding="UTF-8"?>
<svg id="_250413_1154_001_画像" data-name="250413_1154_001 画像" xmlns="http://www.w3.org/2000/svg" viewBox="0 0 169.44 228.24">
  <defs>
    <style>
      .cls-1 {
        fill: #fff;
      }
    </style>
  </defs>
  <path class="cls-1" d="M169.44,0v228.24H0V0h169.44ZM88.49,3.43c-.08-.11-1.75-1.79-1.85-1.86-1.97-1.39-2.82.72-4.37,1.85-4.62,3.36-8.91,4.41-13.99,6.41-1.34.53-5.36,2.23-6.21,3.15-1.36,1.48-1.8,5.63-.15,7.06l-.71.84c.99-.29,2.13-.9,1.68.71l.86.24-.14.73c.89-.4,1.53.67,1.99.67s4.49-.84,5.23-1.02c1.7-.4,3.35-1.09,5.03-1.57l.25,10.17c-1.8.56-3.67.96-5.48,1.52-3.29,1.02-8.08,3.44-11.4,2.41-.42-.13-.78-.83-1.25-.82-.07,0-1.05.47-1.11.55-.38.52.07,1.12-.09,1.51-.42,1.01-2.69,1.67-1.85,3.77.76,1.9,2.46,1.44,3.42,2.33.81.76.83,1.84,2.5,3.02,4.77,3.35,9.11-.25,13.73-1.86.51-.18,2.57-1,2.83-.55l.59,5.05c-2.63.42-5.35.87-7.92,1.56-1.72.46-4.71,1.89-6.15,2.03-.98.1-1.57-.44-2.49-.47.25,1.6-1.68,1.64-2.85,1.71-.46.29-.88,9.58-1,10.89-.08,2.85-1.38,7.14-1.21,9.84.09,1.5.92,1.45,1.58,2.28.89,1.11,1.85,2.62,2.87,3.61.56.54,2.66,1.75,2.76,2.04.25.65-.81.09-.72.59,4.76,3.32,10.66,3.9,16.32,3.12l.1,1.95c-2.31.43-4.61.87-6.87,1.48-3.12.84-7.01,1.86-9.73,3.28-.46.24-1.63.7-1.91,1.04-.94,1.12-.02,1.01.41,1.26.25.14-.06.59.48.94.99.62,5.73,2.53,6.86,2.75,3.52.68,6.45-.48,9.82-.69.7-.04,1.42-.03,2.12.03.58.19,1.29,3.47,1.71,4.05.28.39,1.03-.06.84.71-6.18,1.57-12.66,3.08-18.67,5.21-2.22.79-8.35,3.12-9.9,4.5-.4.36-.67.76-.95,1.21l1.2.12-.96,1.2h1.92s-.72,1.2-.72,1.2c4.97.83,9.71,1.04,14.64-.12,10.86-2.56,23.69-7.14,34.68-8.28,3.79-.39,7.95.25,11.38-1.47l-.22-.92,1.92-.49-.96-.6,1.8-.84-.6-.6,1.19-.96-1.68-.12.47-1.18c-1.14-.26-.29-1.65-1.93-1.57l.02-.6h-1.44s.24-.72.24-.72c-.85.08-1.99-.22-2.78-.21-3.02.04-7.22.55-10.26.96-3.88.52-7.75,1.45-11.56,2.3-1.26-.97.82-1.83-.11-3.29l10.14-.78c1.59-.28,2.85-2.2,4.5-2.11-.57-1.49.65-2.36-.05-3.91-.06-.13-1.84-1.97-2.02-2.06-.52-.27-.95-.32-1.53-.27l.72-1.2c-.67-.05-1.36.08-2.03-.01-2.53-.33-3.82.03-6.34.1-1.36.04-2.89-.36-4.24.08-.5-.09-.58-1.89.05-2.06,1.78-.08,3.52-.5,5.28-.72,3.37-.42,7.48-.38,10.71-1.05.53-.11,1.02-.65,1.61-.68l-.14-1.2c.68-.18,1.11-.72,1.65-1.01.28-.15.86-.16.9-.19.03-.02-.2-.38-.14-.72.36-1.79.54-2.3.66-4.2s1.1-1.48,1.17-1.71c.11-.4-.08-1.32-.01-1.89.8-7.15,1.94-13.51,1.83-20.84-.01-.7-.12-3.3-.37-3.66-.67-.45-1.31-.97-2.05-1.31-.67-.3-4.31-1.58-4.86-1.62-1.02-.09-2.12.51-3.09.64-4.99.68-9.97,1.38-14.97,1.95.08-1.19-1.13-5.39-.48-6.12.46-.52,11.4-3.3,12.95-3.61.77-.16,1.5-.4,2.12-.53.42-.09,1.28.37,1.48.17.06-.06.01-.5.14-.7.14-.23.5-.06.71-.23,1.27-1,3.65-3.84,2.88-5.52-.83-1.79-5.75-3.46-7.5-4.52-4.25.49-9.08,2.8-13.21,3.27-.32.04-.68.16-.91-.18-.08-.13-.34-2.58-.36-3-.07-1.81.18-2.65-.18-4.39-.08-.38.24-.74.15-1.09s-1.36-2.08-1.64-2.56c3.1-1.9,6.56-3.99,7.46-7.81.28-1.19-.84-2.38-.5-3.72l-.71.24c-.24-.67-.63-1.79-1.04-2.33ZM13.02,42.77c-.14.37.26,1.36.79,1.41.3.02,2.52-1.05,3.12-1.13.38-.03.73.7,1.38.6.46-.07,3.5-2.58,4.13-3.1,5.88-4.76,11.99-11.49,15.83-18.01,2.04-3.47,3.31-7.43.82-11.1-.56-.83-1.54-1.43-2.12-2.2-.95-1.25-.77-2.37-2.59-2.93s-4.02-.75-5.81.17c.16.34.28.68.26,1.06-.18,2.95-2.36,6.4-4.1,8.88-3.05,4.33-7.54,8.69-11.39,12.37-1.5,1.44-3.7,2.24-3.84,4.67-.05.86.29,4.86.48,5.67.25,1.07,2.08,2.05,2.03,3.33.28-.23,1.18-.74,1.44-.48.45.45-.4.73-.42.77ZM153.7,13.83c-.54-.91.31-1.01.04-1.58-.08-.18-2.68-2.28-3.03-2.51-1.04-.68-5.05-2.75-6.11-2.79-.76-.02-1.27.39-1.93.47-9.68,1.18-18.12,2.55-27.65,4.51-1.09.22-5.5.3-5.59,1.63-.04.63.33,2.43.64,2.98.42.75,3.48,3.83,4.3,4.57,5.52,5.02,8.47,2.7,14.71,1.52,7.22-1.37,14.66-1.76,21.94-2.71.58-1.18,1.21-.77,2.24-1.19l-.11-1.42,1.89-.27c.19-.68-.48-.89-.66-1.38-.32-.88-.14-.92-.68-1.83ZM46.79,25.69c-.87-.27-.85.83-1.57.94l-.46-.47c-.8,1.33-2.38,1.78-3.6,2.64-7.6,8.25-15.17,15.77-24.57,21.99-2.07,1.37-4.17,2.74-6.44,3.75-.18.22-.87,3.43-.96,3.96-.08.49-.57,3.77-.51,3.96.05.18,1.63,3.17,1.75,3.31.1.11,1.43,1.38,1.53,1.42.41.18,1.05.08,1.49,0l-.24,1.44c.58.06.79-.57,1.28-.78.33-.15.72.02.9-.07.31-.16.36-.64.65-.83,2.96-2.02,6.6-3.56,9.49-5.81l1.02.04c-.04,3.78.33,7.62.11,11.41-.31,5.19-1.41,11.17-1.95,16.53-.09.88-.65,2.43-.61,3.12.06,1.12,1.72,3.56,2.03,4.89.14.6-.05,1.25.11,1.81.09.34.77.91,1,1.4.28.59.6,1.85.89,2.23.18.24,3.14,1.79,3.48,1.82l4.13-.52c.19-.49.23-1.28.51-1.71.2-.29.73-.37.85-.63.13-.28.06-3.8.11-4.47.59-7.22,2.18-14.61,2.1-21.82-.05-4.72,0-9.48-.18-14.16-.05-1.33.51-3.36.07-4.39-.19-.44-.72-.72-.96-1.2-.56-1.12-.89-2.4-1.48-3.52l9.57-9.15c2-2.22,2.42-3.87,3.25-6.59.19-.61.74-1.15.83-1.82.16-1.13-.7-3.03-.92-4.33-.23-1.39.45-3.44-1.92-2.75l-.76-1.66ZM156.41,31.75c-1.47-.75-4.43-1.86-6.07-2.22-2.91-.65-10.53.93-13.84,1.5-4.8.83-9.88,1.83-14.64,2.88-1.38.31-14.35,3.14-14.35,3.89l.71,1.32-.96.24.96.96-.96.12c1.36.68,2.27,2.38,3.3,3.25,1.53,1.28,7.3,2.65,9.29,2.64,2.6-.02,6.33-1.34,9.01-1.69.39.29.25,8.17.28,9.45.21,8.94.37,18.09,1.37,26.94.36,3.21,1.05,9.9.41,12.89-.06.28-.03.79-.47.62-.47-.18-2.78-1.85-3.02-1.66l.48.72-.84-.48-.24.48-1.32-.48c.13.37,1.7,1.49.6,1.67-.95-.5-1.63-.92-2.41-1.68-.19-.03-.13.21-.12.36.03.5,1.8,4.41,2.15,5.05,1.19,2.16,3.3,3.73,4.2,6.33.13.37-.13.99-.06,1.35.23,1.2,1.3,1.92,2.36,2.4.45.21.95.33,1.44.36l-.24.48c1.04.19,2.51-1.43,3.25-1.44.62,0,.86,1.06,1.55.96-.92-.73.27-2.12.5-.99l.45.03c-.13-1.08.93-.97,1.15-1.27.1-.13,0-.48.1-.59.37-.39,1.31-.05,1.37-.09.57-.42.52-2.86.61-3.65.38-3.55.35-7.47.38-11.08.04-4.87-.89-9.22-1.2-13.93-.34-5.08-.33-11.09-.48-16.3-.04-1.28.03-2.57,0-3.85-.06-3.84.54-8.34-.28-11.96-.17-.77-.23-1.56-.44-2.32,2.53-.45,5.05-1.02,7.6-1.41,2.27-.35,4.96-.34,7.16-.76.69-.13,1.26-1.26,2.29-.96-.11-.59.07-1.16-.72-1.2v-.47s1.68-.96,1.68-.96l-1.44-.37c-.13-.55.84-1.08.37-1.79-.15-.23-.73-.3-.78-.58-.09-.5.57-1.62.89-2.05-.7.22-.87-.57-1.03-.65ZM110.01,113.91c-.27-.34-.35-.74-.68-1.12-1.3-1.51-3.54-3.95-5.65-3.59.59,1.5-.6,1.34-.73,1.59-1.27,2.44-1.42,8.14-2.51,11.13-.14.4-.2.83-.6,1.08-5.17.56-10.55-.03-15.65.91-2.09.38-3.82,1.11-5.47,2.45.5.23.56.19.48.84l-1.68.48c-.28.24,2,1.59,2.24,1.72,2.56,1.42,5.28,2.55,8.2,2.84,2.6.26,5.9-.08,8.4.24.33.04.42-.13.35.35-5.04,10.39-9.24,21.11-13.55,31.81-2.92,7.23-5.57,15.12-8.81,21.9-1.4,2.93-2.11,6.65-3.55,9.66l1.16-1.48.77-1.51c.4-.02.52-.13.47.35-.14,1.15-.99,2.97-1.19,4.21l2.04-2.4-.36,1.44,1.2-1.2-.48,1.32c.53.35,1.07-.74,1.56-1.08.41-.29.94-.43,1.4-.76.8-.58,1.26-1.35,2.32-1.64.07,1.25-1.38,1.94-1.92,2.76-.21.33-.19.59.12.59.36,0,5.21-3.76,5.76-4.32,6.74-6.79,10.96-23.08,14.88-32.16,2.67-6.18,6.15-12.08,8.88-18.24l3.36-9.6c.19-.24.45-.21.71-.25,3.35-.39,7.66.16,11.03.47.93.68-.88,9.94-1.18,11.55-.53,2.94-1.96,7.38-2.18,10.06-.03.36.41.56.35,1.04-.06.43-1.53,2.81-1.82,3.97-1.94,7.6-4.03,15.27-5.92,22.9-.17.68.2,1.31-.38,2-.22.26-.75.4-.85.58-.11.2.18.73.14,1.08-.1.78-.62,2.66-1.45,2.78v.48s.48-.24.48-.24c-.28,2.05-1.07,4-1.56,6-.08.34-.48.59-.53.88-.1.58.27,1.66-.31,2.48-.4.31-3.54-4.89-3.88-5.37-.57-.8-1.17-1.73-1.78-2.53-.98-1.3-2.28-2.6-3.35-3.85-.4.26.1.53.24.72.6.78,1.15,1.61,1.8,2.33v1.39s-1.32-1.08-1.32-1.08l-.24.48c-.89-.6-1.01-1.86-2.04-2.16l2.4,4.44c-.93.46-1.57-3.08-2.4-2.28-.36.35,1.62,3.37,1.44,3.6-.38.46-.52-.36-.59-.48-.64-.97-1.55-3.08-2.53-3.12.6-.44-1.5-1.95-1.67-1.68l3.01,8.17c.73,4.36,2.68,8.38,5.75,11.75.72.79,1.66,1.3,2.3,2.04.17.19,0,.51.04.56.27.29,2.21.95,2.72,1.01,1.67.18,3.47-.44,5.02-.97.24.34-.02.62.6.49l.39-.95,1.29.22c-.21-.96.42-.58.66-.78.06-.05.53-1.22.91-1.37l.12.72c.98-.47.77-1.46,1.07-2.16.44-1.03,1.39-1.53.85-2.88l.48.24c.07-1.45-.34-2.72-.23-4.2.44-5.89,3.46-13.15,5.02-18.98,1.23-4.6,2.1-9.31,3.39-13.89,1.18-4.17,2.97-8.45,3.89-12.66.13-.61-.29-1.52.41-1.4v-.48s-.47.24-.47.24c1.06-5.37,3.01-10.59,4.2-15.95.7-3.15,1.5-6.19.29-9.3-.17-.43-.47-.81-.76-1.16-1.91-.64-4.42-2.27-6.33-2.5-2.37-.29-4.73-.82-7.12-1.09-2.73-.31-5.54-.27-8.28-.48.09-1.53.39-2.76.13-4.33-.35-2.12-1.44-3.07-2.68-4.64ZM47.28,203.16v-4.68c3.41-.61,7.55-.66,10.86-1.5.18-.04,1.61-.6,1.69-.65.44-.29.16-1.1.22-1.17.24-.27,1.44-.56,1.87-.52l-.72-.71c.67.25.45-1.36.52-1.41l.92-.39-.95-.36.48-.6-.71-.36.48-.47-.48-.14c.49-.77-.05-.47-.33-.84-.15-.2-.04-.58-.31-.7-1.65-.73-3.47-.68-5.23-.72-2.74-.06-4.59.67-7.23.93-.43.04-.86.05-1.29.03l.03-1.66c6.21-1.66,12.75-1.86,18.93-3.63l-.24-.47c1.2-.05,1.28-1.63,2.88-1.2.13-.34-.97-.21-.48-.71.18-.18,1.85-.12,1.68-.84-.13-.54-1.89-.67-2.4-.85l.46-.25-.22-.7c.49-.05,1.12.27.96-.48l-1.31.02c-.12-1.08-.66-.6-1.34-1.13v-.81s.73.24.73.24c-.2-1.07.71-.73.84-.95.89-1.4.08-6.79.11-8.79.03-2.27.78-5.84.61-7.91,0-.08-.38-1.44-.42-1.5-.16-.29-2.11-1.3-2.57-1.39-6.83-1.02-13.46,1.17-20.17,2.06v-.96s-.48.24-.48.24l-.24-3.12.48.24.15-1.21c5.08-.95,10.11-2.18,15.16-3.28,2.3-.5,8.14-1.1,9.76-2.24.38-.27.28-.71.44-.88.22-.22.9-.08,1.03-.66.33-1.53-.99-2.92-.9-4.41-.66-.14-1.28-.71-1.88-.88-5.92-1.72-17.14,2.98-23.48,3.68-.43.05-.72-.04-1.11-.2l-.25.49c-.9-.31-1.11-4.46-1.39-5.57-.23-.89-.64-1.59-.88-2.44.09-.32,4.92-2.5,5.75-3.15,1.43-1.1,4.54-4.99,5.08-6.68.43-1.34-.4-2.57-1.35-3.53-.7-.7-1.78-1.12-2.53-1.79-.99-.89-1.22-2.23-2.7-1.99-1.09.18-.46.89-.84,1.8-1.45,3.5-17.92,9.42-21.99,11.37-.86.41-1.69,1.1-2.54,1.54-.33.17-2.75,1.39-2.87,1.28l-.26-.45-1.68,4.08c1.16-.57,1.84,1.16,1.68,2.16h1.44s-.23.84-.23.84l.23.24c.92-.24,2.02.57,2.51,1.3,3.96-1.67,8.01-2.89,12.13-4.07l.69,6.56c-.12.34-.45.38-.73.47-2.8.93-6.68,1.39-9.65,2.11-1.46.35-4.37.84-5.48,1.24-1.42.51-2.37,2.11-4.46,1.4l-.38,1.42-.86.24c.48,1.17.15,1.47-.65,2.27-.1.68,2,1.51,2.57,1.68,7.18,2.14,13.39-.78,20.4-1.8l.48,3.84c-2.45.21-4.8.4-7.25.8-2.72.44-6.14,1.73-8.63,1.93-.88.07-1.75-.14-2.6-.32-.38.88-.15,1.66-.23,2.53-.49,5.39-.29,10.87.03,16.29,1.68,2.12,2.17,4.53,4.84,5.96,1.28.69,1.76-.12,2.9-.04.76.05,2.26.85,3.26,1.08,3.23.74,6.54.94,9.85.83l-.03,2.14c-4.01,1.04-8.25,1.24-12.26,2.26-2.61.66-4.27,1.55-5.71,3.89l.72.83-.95.6c5.16,3.49,12.6,2.78,18.47,1.8l.48,4.56c-5.13.35-10.41,1.07-15.41,2.23-2.47.57-4.98,1.15-6.91,2.93l.96.36-.23.83.94.49-1.91,1.44c3.44,1.53,7.88,1.82,11.65,1.57,2.04-.13,4.19-.78,6.23-.97,10.71-1,22-.55,32.87-1.93.81-.1,2.31-.3,3.01-.59.66-.27,1.08-1.23,1.44-1.44.31-.18.78.21,1.21-.48l-.25-1.31.95-.62-.95-.95.69-1.29c-.79-.05-.48-.67-.51-.71-.08-.09-1.85-1.26-2.11-1.35-.49-.17-1.04-.32-1.56-.37-6.08-.61-11.99.75-18,1.2-.66.05-1.93.21-2.46.2-.3,0-.37-.09-.54-.31Z"/>
  <path d="M88.49,3.43c.41.54.8,1.66,1.04,2.33l.71-.24c-.34,1.34.78,2.53.5,3.72-.9,3.81-4.36,5.91-7.46,7.81.28.48,1.56,2.2,1.64,2.56s-.23.71-.15,1.09c.36,1.74.11,2.58.18,4.39.02.42.27,2.88.36,3,.23.34.59.21.91.18,4.12-.47,8.95-2.77,13.21-3.27,1.74,1.06,6.67,2.73,7.5,4.52.78,1.68-1.61,4.52-2.88,5.52-.21.17-.57,0-.71.23-.13.21-.08.64-.14.7-.2.2-1.05-.26-1.48-.17-.61.13-1.34.38-2.12.53-1.54.31-12.49,3.09-12.95,3.61-.65.73.56,4.93.48,6.12,5-.57,9.99-1.26,14.97-1.95.97-.13,2.07-.73,3.09-.64.55.05,4.19,1.32,4.86,1.62.74.33,1.38.86,2.05,1.31.26.35.36,2.96.37,3.66.12,7.33-1.03,13.69-1.83,20.84-.06.57.13,1.49.01,1.89-.06.23-1.05-.1-1.17,1.71s-.3,2.41-.66,4.2c-.07.33.16.69.14.72-.03.03-.62.04-.9.19-.53.29-.97.83-1.65,1.01l.14,1.2c-.59.03-1.09.57-1.61.68-3.23.67-7.35.63-10.71,1.05-1.76.22-3.5.64-5.28.72-.62.18-.55,1.98-.05,2.06,1.35-.44,2.88-.04,4.24-.08,2.52-.08,3.81-.44,6.34-.1.66.09,1.36-.03,2.03.01l-.72,1.2c.58-.05,1.01,0,1.53.27.18.09,1.96,1.93,2.02,2.06.71,1.55-.51,2.42.05,3.91-1.64-.1-2.91,1.82-4.5,2.11l-10.14.78c.93,1.46-1.15,2.31.11,3.29,3.82-.85,7.68-1.77,11.56-2.3,3.05-.41,7.25-.93,10.26-.96.8,0,1.93.29,2.78.21l-.24.72h1.44s-.02.61-.02.61c1.64-.08.79,1.31,1.93,1.57l-.47,1.18,1.68.12-1.19.96.6.6-1.8.84.96.6-1.92.49.22.92c-3.43,1.72-7.59,1.08-11.38,1.47-10.99,1.13-23.82,5.72-34.68,8.28-4.93,1.16-9.67.94-14.64.12l.72-1.2h-1.92s.96-1.2.96-1.2l-1.2-.12c.29-.45.55-.84.95-1.21,1.54-1.39,7.68-3.72,9.9-4.5,6-2.13,12.49-3.64,18.67-5.21.19-.77-.56-.32-.84-.71-.42-.58-1.14-3.86-1.71-4.05-.7-.06-1.42-.07-2.12-.03-3.36.21-6.3,1.37-9.82.69-1.14-.22-5.87-2.13-6.86-2.75-.54-.34-.23-.8-.48-.94-.43-.24-1.35-.13-.41-1.26.28-.33,1.45-.8,1.91-1.04,2.72-1.43,6.6-2.44,9.73-3.28,2.27-.61,4.57-1.06,6.87-1.48l-.1-1.95c-5.66.78-11.56.2-16.32-3.12-.09-.5.96.06.72-.59-.11-.28-2.2-1.49-2.76-2.04-1.02-.99-1.98-2.5-2.87-3.61-.66-.83-1.49-.78-1.58-2.28-.17-2.69,1.13-6.98,1.21-9.84.11-1.31.53-10.6,1-10.89,1.17-.07,3.1-.12,2.85-1.71.92.03,1.51.57,2.49.47,1.44-.14,4.43-1.57,6.15-2.03,2.57-.69,5.29-1.14,7.92-1.56l-.59-5.05c-.27-.45-2.32.37-2.83.55-4.62,1.61-8.97,5.21-13.73,1.86-1.67-1.18-1.69-2.26-2.5-3.02-.96-.9-2.66-.43-3.42-2.33-.84-2.1,1.43-2.76,1.85-3.77.16-.39-.28-1,.09-1.51.06-.08,1.04-.55,1.11-.55.46-.01.83.69,1.25.82,3.32,1.03,8.11-1.39,11.4-2.41,1.81-.56,3.67-.96,5.48-1.52l-.25-10.17c-1.68.48-3.32,1.17-5.03,1.57-.73.17-4.76,1.02-5.23,1.02s-1.1-1.07-1.99-.67l.14-.73-.86-.24c.44-1.61-.69-1-1.68-.71l.71-.84c-1.65-1.43-1.21-5.58.15-7.06.85-.92,4.87-2.62,6.21-3.15,5.08-2,9.37-3.06,13.99-6.41,1.56-1.13,2.4-3.24,4.37-1.85.11.08,1.77,1.76,1.85,1.86ZM101.28,60.24c.05-1.71.49-3.72.5-5.39,0-.43.1-1.12-.41-1.29-2,.05-3.99.62-6,.9-1.71.23-3.48.25-5.18.58-.55.11-1.75.18-1.96.71-.13.33-.1,5.26.1,5.45,2.01-.28,4.32-.41,6.29-.77.93-.17,1.54-.81,1.78-.86.27-.06.75.36,1.18.43.51.08,3.57.39,3.7.25ZM78.48,57.12l-6.71,1.21.23,5.87,6.96-1.09-.48-6ZM101.76,73.92c-.43-.86-1.39-5.02-2.08-5.24l-11.36,1.41c.77,1.83.26,3.4.24,5.28l13.2-1.44ZM70.32,78l8.41-1.3c.26-.18.31-4.68.12-4.95-.2-.29-.64-.25-.96-.23-2.03.09-4.26.83-6.35.75-.4,1.16-.14,2.55-.52,3.68-.25.74-.99,1.07-.7,2.05Z"/>
  <path d="M47.28,203.16c.17.22.25.31.54.31.52.01,1.8-.15,2.46-.2,6.01-.45,11.92-1.8,18-1.2.52.05,1.07.2,1.56.37.26.09,2.03,1.25,2.11,1.35.03.04-.27.66.51.71l-.69,1.29.95.95-.95.62.25,1.31c-.43.7-.9.3-1.21.48-.36.21-.79,1.16-1.44,1.44-.7.29-2.2.49-3.01.59-10.88,1.37-22.16.93-32.87,1.93-2.04.19-4.2.83-6.23.97-3.77.25-8.21-.04-11.65-1.57l1.91-1.44-.94-.49.23-.83-.96-.36c1.93-1.78,4.44-2.36,6.91-2.93,5-1.16,10.28-1.88,15.41-2.23l-.48-4.56c-5.88.98-13.32,1.68-18.47-1.8l.95-.6-.72-.83c1.44-2.33,3.11-3.22,5.71-3.89,4.01-1.02,8.25-1.22,12.26-2.26l.03-2.14c-3.31.11-6.62-.09-9.85-.83-1-.23-2.5-1.03-3.26-1.08-1.14-.08-1.62.73-2.9.04-2.67-1.43-3.15-3.84-4.84-5.96-.31-5.42-.51-10.9-.03-16.29.08-.86-.15-1.64.23-2.53.85.18,1.73.39,2.6.32,2.49-.2,5.91-1.48,8.63-1.93,2.44-.4,4.8-.58,7.25-.8l-.48-3.84c-7.01,1.03-13.22,3.94-20.4,1.8-.57-.17-2.68-1-2.57-1.68.81-.8,1.13-1.1.65-2.27l.86-.24.38-1.42c2.09.7,3.04-.89,4.46-1.4,1.11-.4,4.02-.89,5.48-1.24,2.98-.71,6.86-1.17,9.65-2.11.29-.1.62-.13.73-.47l-.69-6.56c-4.12,1.17-8.17,2.4-12.13,4.07-.49-.73-1.59-1.54-2.51-1.3l-.23-.24.23-.84h-1.44c.16-1-.52-2.73-1.68-2.16l1.68-4.08.26.45c.12.11,2.54-1.11,2.87-1.28.85-.45,1.68-1.13,2.54-1.54,4.07-1.94,20.54-7.87,21.99-11.37.38-.92-.25-1.63.84-1.8,1.48-.24,1.71,1.1,2.7,1.99.75.67,1.83,1.09,2.53,1.79.96.97,1.78,2.2,1.35,3.53-.54,1.7-3.64,5.58-5.08,6.68-.84.64-5.66,2.83-5.75,3.15.23.85.65,1.55.88,2.44.29,1.11.49,5.26,1.39,5.57l.25-.49c.39.16.68.25,1.11.2,6.33-.7,17.56-5.4,23.48-3.68.6.17,1.22.74,1.88.88-.09,1.48,1.23,2.87.9,4.41-.13.58-.81.44-1.03.66-.16.16-.06.61-.44.88-1.62,1.14-7.46,1.75-9.76,2.24-5.05,1.09-10.07,2.32-15.16,3.28l-.15,1.21-.48-.24.24,3.12.48-.24v.96c6.72-.89,13.34-3.07,20.18-2.06.46.09,2.41,1.1,2.57,1.39.04.07.41,1.43.42,1.5.17,2.07-.58,5.64-.61,7.91-.03,1.99.77,7.38-.11,8.79-.13.21-1.04-.12-.84.95l-.72-.24v.81c.67.53,1.21.04,1.33,1.13l1.31-.02c.16.75-.47.43-.96.48l.22.7-.46.25c.51.18,2.27.31,2.4.85.17.72-1.5.66-1.68.84-.49.5.61.38.48.71-1.6-.42-1.69,1.15-2.88,1.2l.24.47c-6.18,1.77-12.72,1.97-18.93,3.63l-.03,1.66c.43.02.86,0,1.29-.03,2.65-.26,4.5-.99,7.23-.93,1.76.04,3.58,0,5.23.72.27.12.16.5.31.7.29.37.82.07.33.84l.48.14-.48.47.71.36-.48.6.95.36-.92.39c-.07.05.16,1.66-.52,1.41l.72.71c-.43-.04-1.63.26-1.87.52-.06.06.22.88-.22,1.17-.08.05-1.51.61-1.69.65-3.31.84-7.45.89-10.86,1.5v4.68ZM57.83,166.31c.25-.29-.47-3.69-1.53-3.36l-10.46,2.04-.23,2.53c2.43-.21,4.88-.46,7.31-.74.44-.05.79-.4,1.23-.45,1.23-.15,2.47.2,3.7-.02ZM36,166.08c-3.63.23-7.55.03-11.14.5-.16.02-.91.19-.86.33l1.32,3.49c3.42-1.6,7.28-1.24,10.92-1.93l-.24-2.4ZM46.32,175.44v3.84c3.92-.76,7.87-1.32,11.8-2,.77-.13,1.92-.6,2.5-.64.67-.05,1.46.61,1.77-.24-1.1.15-1.4-.7-1.82-.93-.66-.37-1.3-.35-1.89-1.01l-12.37.98ZM36.72,176.88c-3.38.14-6.72.26-10.08-.24l.28,3.92.56.41,9.48-.49-.24-3.6Z"/>
  <path d="M110.01,113.91c1.24,1.57,2.33,2.52,2.68,4.64.26,1.57-.04,2.8-.13,4.33,2.74.21,5.55.17,8.28.48,2.38.27,4.75.81,7.12,1.09,1.91.23,4.42,1.86,6.33,2.5.29.35.6.73.76,1.16,1.22,3.11.41,6.15-.29,9.3-1.18,5.36-3.14,10.58-4.2,15.95l.48-.24v.48c-.7-.12-.28.79-.41,1.4-.93,4.21-2.72,8.49-3.89,12.66-1.29,4.58-2.16,9.29-3.39,13.89-1.56,5.83-4.58,13.1-5.02,18.98-.11,1.48.3,2.75.23,4.2l-.48-.24c.55,1.35-.41,1.85-.85,2.88-.3.71-.09,1.7-1.07,2.16l-.12-.72c-.38.16-.84,1.32-.91,1.37-.24.2-.87-.18-.66.78l-1.29-.22-.39.95c-.62.13-.36-.15-.6-.49-1.55.54-3.36,1.16-5.02.97-.51-.06-2.45-.72-2.72-1.01-.04-.04.12-.36-.04-.56-.64-.74-1.58-1.25-2.3-2.04-3.07-3.37-5.02-7.39-5.75-11.75l-3.01-8.17c.18-.27,2.28,1.24,1.67,1.68.98.05,1.89,2.16,2.53,3.12.08.12.22.94.59.48.18-.22-1.8-3.25-1.44-3.6.83-.8,1.47,2.74,2.4,2.28l-2.4-4.44c1.03.3,1.15,1.56,2.04,2.16l.24-.48,1.32,1.08v-1.39c-.65-.72-1.2-1.55-1.8-2.33-.15-.19-.65-.46-.24-.72,1.07,1.25,2.36,2.55,3.35,3.85.61.8,1.2,1.73,1.78,2.53.34.48,3.47,5.68,3.88,5.37.58-.83.21-1.91.31-2.48.05-.28.45-.54.53-.88.49-2,1.28-3.96,1.56-6l-.48.24v-.48c.83-.12,1.35-2,1.45-2.78.04-.35-.25-.88-.14-1.08.1-.18.63-.32.85-.58.58-.69.22-1.32.38-2,1.89-7.64,3.98-15.3,5.92-22.9.3-1.16,1.76-3.54,1.82-3.97.07-.49-.37-.69-.35-1.04.21-2.68,1.64-7.12,2.18-10.06.29-1.61,2.1-10.87,1.18-11.55-3.37-.31-7.68-.86-11.03-.47-.26.03-.53,0-.71.25l-3.36,9.6c-2.73,6.16-6.21,12.06-8.88,18.24-3.92,9.08-8.14,25.37-14.88,32.16-.55.55-5.4,4.32-5.76,4.32-.31,0-.33-.27-.12-.59.53-.82,1.99-1.51,1.92-2.76-1.05.29-1.51,1.06-2.32,1.64-.46.33-.99.47-1.4.76-.49.34-1.03,1.43-1.56,1.08l.48-1.32-1.2,1.2.36-1.44-2.04,2.4c.2-1.24,1.05-3.07,1.19-4.21.06-.47-.06-.36-.47-.35l-.77,1.51-1.16,1.48c1.44-3,2.15-6.73,3.55-9.66,3.25-6.78,5.9-14.67,8.81-21.9,4.31-10.7,8.52-21.42,13.55-31.81.07-.48-.02-.31-.35-.35-2.5-.32-5.8.01-8.4-.24-2.92-.29-5.65-1.42-8.2-2.84-.24-.13-2.52-1.47-2.24-1.72l1.68-.48c.08-.64.02-.61-.48-.84,1.65-1.34,3.39-2.06,5.47-2.45,5.1-.94,10.48-.36,15.65-.91.41-.25.46-.68.6-1.08,1.08-2.99,1.24-8.69,2.51-11.13.13-.25,1.32-.09.73-1.59,2.11-.36,4.35,2.08,5.65,3.59.33.38.42.78.68,1.12Z"/>
  <path d="M156.41,31.75c.16.08.33.87,1.03.65-.32.43-.98,1.55-.89,2.05.05.29.62.35.78.58.48.72-.5,1.24-.37,1.79l1.44.37-1.68.96v.47c.79.05.61.61.72,1.2-1.03-.3-1.59.82-2.29.96-2.2.42-4.89.41-7.16.76-2.55.39-5.06.96-7.6,1.41.2.76.26,1.55.44,2.32.82,3.62.22,8.12.28,11.96.02,1.28-.05,2.57,0,3.85.15,5.21.15,11.22.48,16.3.31,4.71,1.24,9.06,1.2,13.93-.03,3.62,0,7.53-.38,11.08-.09.79-.04,3.23-.61,3.65-.05.04-1-.3-1.37.09-.1.1,0,.46-.1.59-.22.29-1.28.19-1.15,1.27l-.45-.03c-.23-1.13-1.42.26-.5.99-.69.1-.94-.97-1.55-.96-.74,0-2.21,1.63-3.25,1.44l.24-.48c-.49-.03-1-.15-1.44-.36-1.06-.48-2.13-1.2-2.36-2.4-.07-.35.19-.98.06-1.35-.89-2.6-3-4.16-4.2-6.33-.35-.64-2.12-4.55-2.15-5.05-.01-.15-.07-.4.12-.36.77.76,1.45,1.17,2.41,1.68,1.1-.19-.47-1.3-.6-1.67l1.32.48.24-.48.84.48-.48-.72c.24-.19,2.55,1.48,3.02,1.66.44.16.41-.34.47-.62.65-2.99-.04-9.68-.41-12.89-1-8.85-1.16-18-1.37-26.94-.03-1.28.11-9.16-.28-9.45-2.67.35-6.41,1.67-9.01,1.69-1.99.01-7.75-1.36-9.29-2.64-1.03-.86-1.94-2.57-3.3-3.25l.96-.12-.96-.96.96-.24-.71-1.32c0-.74,12.97-3.58,14.35-3.89,4.76-1.05,9.83-2.06,14.64-2.88,3.31-.57,10.92-2.14,13.84-1.5,1.63.36,4.6,1.46,6.07,2.22Z"/>
  <path d="M46.79,25.69l.76,1.66c2.37-.69,1.68,1.36,1.92,2.75.22,1.3,1.08,3.2.92,4.33-.09.67-.64,1.21-.83,1.82-.83,2.72-1.25,4.37-3.25,6.59l-9.57,9.15c.59,1.11.92,2.4,1.48,3.52.24.48.77.76.96,1.2.44,1.03-.12,3.06-.07,4.39.18,4.68.13,9.44.18,14.16.08,7.21-1.51,14.6-2.1,21.82-.05.67.01,4.19-.11,4.47s-.66.35-.85.63c-.29.42-.33,1.21-.51,1.71l-4.13.52c-.34-.03-3.3-1.58-3.48-1.82-.29-.39-.61-1.64-.89-2.23-.24-.49-.91-1.06-1-1.4-.16-.57.04-1.21-.11-1.81-.31-1.33-1.97-3.77-2.03-4.89-.04-.69.53-2.24.61-3.12.54-5.36,1.64-11.35,1.95-16.53.22-3.78-.15-7.63-.11-11.41l-1.02-.04c-2.88,2.24-6.52,3.79-9.49,5.81-.28.19-.34.67-.65.83-.17.09-.56-.08-.9.07-.49.22-.69.84-1.28.78l.24-1.44c-.43.08-1.08.17-1.49,0-.1-.04-1.43-1.31-1.53-1.42-.12-.14-1.7-3.13-1.75-3.31-.05-.19.43-3.47.51-3.96.09-.52.78-3.74.96-3.96,2.27-1.01,4.37-2.38,6.44-3.75,9.39-6.22,16.96-13.75,24.57-21.99,1.22-.86,2.8-1.31,3.6-2.64l.46.47c.72-.11.7-1.21,1.57-.94Z"/>
  <path d="M13.02,42.77s.87-.32.42-.77c-.26-.26-1.16.25-1.44.48.04-1.28-1.78-2.27-2.03-3.33-.19-.82-.53-4.81-.48-5.67.14-2.43,2.33-3.23,3.84-4.67,3.85-3.69,8.34-8.04,11.39-12.37,1.75-2.48,3.92-5.94,4.1-8.88.02-.39-.1-.73-.26-1.06,1.79-.92,3.91-.77,5.81-.17s1.64,1.68,2.59,2.93c.58.77,1.56,1.37,2.12,2.2,2.49,3.67,1.22,7.63-.82,11.1-3.83,6.52-9.94,13.26-15.83,18.01-.63.51-3.67,3.03-4.13,3.1-.65.09-1-.63-1.38-.6-.6.08-2.82,1.16-3.12,1.13-.53-.04-.93-1.04-.79-1.41Z"/>
  <path d="M153.7,13.83c.54.91.36.95.68,1.83.18.49.85.7.66,1.38l-1.89.27.11,1.42c-1.03.42-1.66,0-2.24,1.19-7.28.96-14.72,1.35-21.94,2.71-6.25,1.19-9.19,3.5-14.71-1.52-.82-.74-3.88-3.82-4.3-4.57-.31-.56-.69-2.36-.64-2.98.09-1.33,4.5-1.4,5.59-1.63,9.53-1.96,17.97-3.33,27.65-4.51.67-.08,1.17-.49,1.93-.47,1.06.03,5.07,2.11,6.11,2.79.35.23,2.94,2.33,3.03,2.51.27.57-.58.67-.04,1.58Z"/>
  <path class="cls-1" d="M101.28,60.24c-.13.13-3.2-.17-3.7-.25-.43-.07-.91-.49-1.18-.43-.24.05-.85.69-1.78.86-1.97.36-4.28.49-6.29.77-.2-.19-.22-5.12-.1-5.45.2-.53,1.4-.6,1.96-.71,1.7-.33,3.47-.35,5.18-.58,2-.27,3.99-.84,6-.9.51.17.42.87.41,1.29-.01,1.67-.45,3.68-.5,5.39Z"/>
  <path class="cls-1" d="M101.76,73.92l-13.2,1.44c.02-1.88.54-3.45-.24-5.28l11.36-1.41c.69.23,1.65,4.38,2.08,5.24Z"/>
  <path class="cls-1" d="M70.32,78c-.28-.99.45-1.31.7-2.05.38-1.13.12-2.52.52-3.68,2.08.08,4.32-.66,6.35-.75.32-.01.76-.05.96.23.19.27.14,4.77-.12,4.95l-8.41,1.3Z"/>
  <polygon class="cls-1" points="78.48 57.12 78.96 63.12 72 64.21 71.77 58.33 78.48 57.12"/>
  <path class="cls-1" d="M46.32,175.44l12.37-.98c.59.65,1.22.63,1.89,1.01.42.23.72,1.08,1.82.93-.31.85-1.1.2-1.77.24-.59.04-1.73.51-2.5.64-3.93.68-7.89,1.24-11.8,2v-3.84Z"/>
  <path class="cls-1" d="M36.72,176.88l.24,3.6-9.48.49-.56-.41-.28-3.92c3.36.5,6.7.38,10.08.24Z"/>
  <path class="cls-1" d="M57.83,166.31c-1.22.23-2.46-.13-3.7.02-.44.06-.78.4-1.23.45-2.43.28-4.87.53-7.31.74l.23-2.53,10.46-2.04c1.06-.33,1.79,3.07,1.53,3.36Z"/>
  <path class="cls-1" d="M36,166.08l.24,2.4c-3.64.69-7.5.33-10.92,1.93l-1.32-3.49c-.05-.14.69-.31.86-.33,3.59-.47,7.51-.27,11.14-.5Z"/>
</svg>
